<svg width="640" height="688" viewBox="0 0 640 688" fill="none" xmlns="http://www.w3.org/2000/svg">
<g opacity="0.6">
<path d="M623.312 177.841C628.512 181.218 631.496 187.136 631.112 193.306L627.844 245.732C627.639 249.009 626.493 252.152 624.543 254.781L403.918 552.321C396.537 562.274 381.288 561.165 375.285 550.239L196.733 225.2C195.168 222.35 194.443 219.119 194.645 215.883L197.922 163.312C198.304 157.183 201.951 151.755 207.469 149.102L412.375 50.569C417.724 47.997 424.044 48.4117 429.05 51.663L623.312 177.841Z" fill="#3370AB"/>
<path d="M381.124 105.283C387.247 104.948 392.983 108.123 396.073 113.557L421.494 158.26C423.152 161.176 423.936 164.555 423.748 167.973L402.989 545.218C402.302 557.701 389.577 565.653 378.839 560.308L55.987 399.623C53.084 398.178 50.6663 395.875 49.0292 392.996L23.5362 348.166C20.4665 342.768 20.4961 335.997 23.6133 330.491L139.067 126.557C141.986 121.401 147.198 118.093 152.893 117.781L381.124 105.283Z" fill="#FFE08B"/>
</g>
</svg>
